<svg width="187" height="70" viewBox="0 0 187 70" fill="none" xmlns="http://www.w3.org/2000/svg">
<g clip-path="url(#clip0_1199_77)">
<path d="M76.8751 39.2099C73.0771 39.2099 70.4651 36.5522 70.4651 32.9566V32.9224C70.4651 29.4683 73.1654 26.6348 76.8604 26.6348C79.0558 26.6348 80.379 27.2259 81.6531 28.3007L79.9624 30.3331C79.0215 29.5514 78.1835 29.1019 76.7722 29.1019C74.8217 29.1019 73.2683 30.8216 73.2683 32.8882V32.9224C73.2683 35.1452 74.8021 36.777 76.9633 36.777C77.9385 36.777 78.8108 36.5327 79.4871 36.049V34.3147H76.7869V32.0039H82.0844V37.2851C80.8298 38.3452 79.1048 39.2148 76.8751 39.2148V39.2099Z" fill="white"/>
<path d="M93.8112 39.0007L91.1992 35.1119H89.092V39.0007H86.4065V26.8408H91.9833C94.855 26.8408 96.58 28.3504 96.58 30.8518V30.886C96.58 32.8499 95.5166 34.0811 93.968 34.6527L96.9476 38.9958H93.8112V39.0007ZM93.8651 30.9935C93.8651 29.8454 93.0614 29.2591 91.7579 29.2591H89.092V32.7522H91.8118C93.1202 32.7522 93.8651 32.0585 93.8651 31.0325V30.9983V30.9935Z" fill="white"/>
<path d="M100.75 39.0007V26.8408H109.949V29.22H103.416V31.6872H109.165V34.0664H103.416V36.6215H110.037V39.0007H100.75Z" fill="white"/>
<path d="M123.244 39.0008L122.126 36.2747H116.971L115.854 39.0008H113.119L118.348 26.7578H120.823L126.047 39.0008H123.244ZM119.549 29.9676L117.927 33.9101H121.166L119.544 29.9676H119.549Z" fill="white"/>
<path d="M133.628 29.308V39.0007H130.943V29.308H127.233V26.8408H137.338V29.308H133.628Z" fill="white"/>
<path d="M152.868 39.0007H148.114V26.8408H152.868C156.7 26.8408 159.346 29.4643 159.346 32.8841V32.9183C159.346 36.3382 156.7 38.9958 152.868 38.9958V39.0007ZM156.543 32.9232C156.543 30.7687 155.063 29.2591 152.868 29.2591H150.795V36.5873H152.868C155.063 36.5873 156.543 35.1119 156.543 32.9574V32.9232Z" fill="white"/>
<path d="M171.686 39.0008L170.568 36.2747H165.413L164.296 39.0008H161.561L166.79 26.7578H169.265L174.494 39.0008H171.691H171.686ZM167.991 29.9676L166.369 33.9101H169.608L167.986 29.9676H167.991Z" fill="white"/>
<path d="M182.315 34.1544V39.0007H179.63V34.2081L174.945 26.8408H178.081L180.992 31.7214L183.952 26.8408H187L182.315 34.1544Z" fill="white"/>
<path d="M81.3981 44.9795H88.0139C91.8559 44.9795 93.8896 46.8653 93.8896 50.0457C93.8896 51.9706 93.0565 53.5632 91.6207 54.4329C90.6259 55.0484 89.2292 55.2292 87.3964 55.2292H81.3981V44.9844V44.9795ZM86.8769 53.2994C89.9055 53.2994 91.4198 52.5471 91.4198 50.0017C91.4198 47.9157 90.2828 46.8067 88.0335 46.8067H83.7896V53.2994H86.8769Z" fill="#6A9E46"/>
<path d="M100.26 44.9795H110.777V46.7285H102.652V49.0149H107.391V50.759H102.652V53.2994H110.88V55.2243H100.26V44.9795Z" fill="#6A9E46"/>
<path d="M117.275 44.9795H118.907L126.14 51.0179C126.557 51.355 126.954 51.7117 127.316 52.1318C127.257 51.2769 127.218 50.6808 127.218 50.3633V44.9795H129.37V55.2243H127.738L120.186 48.8879C119.887 48.6338 119.608 48.37 119.328 48.0573C119.407 48.8537 119.426 49.3862 119.426 49.6842V55.2243H117.275V44.9795Z" fill="#6A9E46"/>
<path d="M141.376 55.2292H138.984V46.8067H134.265V44.9795H146.12V46.8067H141.376V55.2292Z" fill="#6A9E46"/>
<path d="M153.5 44.9795H155.813L161.708 55.2243H159.018L157.783 52.9819H151.27L150.074 55.2243H147.683L153.5 44.9795ZM156.783 51.1352L154.573 46.963L152.28 51.1352H156.783Z" fill="#6A9E46"/>
<path d="M167.006 44.9795H169.397V53.2994H177.106V55.2243H167.006V44.9795Z" fill="#6A9E46"/>
<path d="M8.59606 49.607C8.77248 48.7863 8.9489 47.9313 9.13512 47.0275L9.26254 46.3924L9.38995 45.767C9.8506 43.4611 10.3407 40.8767 10.8454 38.0822L10.9287 37.623L11.061 36.8853C11.0953 36.6996 11.1247 36.5189 11.1591 36.3381C10.8209 35.2291 10.5514 34.081 10.3701 32.8987L10.3113 32.5128L10.326 32.4981C9.88001 29.1956 10.2819 25.8246 11.4972 22.7175C13.2271 18.2815 16.5153 14.7004 20.5779 12.502C14.0455 14.9545 8.52256 20.3529 5.76355 27.4368C3.48969 33.2554 3.63181 39.6163 6.16049 45.3469C6.83187 46.8663 7.65516 48.2879 8.60096 49.607H8.59606Z" fill="#FDDE7C"/>
<path d="M45.5653 9.3752C48.7016 13.2738 50.4413 18.0127 51.147 22.8395C52.6025 25.551 56.0819 32.8205 56.4739 41.0721C59.2574 36.5237 60.5119 31.0129 59.6347 25.3458C57.4148 10.8946 44.6832 0 30.0305 0C29.4229 0 28.8152 0.0244273 28.2026 0.063511C34.3087 0.600912 39.8953 3.29769 44.1343 7.80208L44.7175 8.41765L45.5702 9.3752H45.5653Z" fill="#FFC407"/>
<path d="M25.9194 1.43653C20.6023 1.43653 15.393 3.26369 11.2471 6.58092C5.00873 11.5641 1.09319 18.6871 0.220893 26.6308C-0.479885 32.9966 0.848164 39.2647 3.97471 44.7071C2.36243 40.4127 1.96549 35.8448 2.78388 31.4039C3.02401 29.9139 3.40625 28.4287 3.97961 26.9679C4.52848 25.5658 5.18515 24.2223 5.93493 22.9472C9.12519 17.3582 14.0649 13.0493 19.9456 10.8459L20.9257 10.46C23.5181 9.50242 25.3411 9.52685 28.1001 9.52685C31.0502 9.52685 33.9955 10.0887 36.8574 11.1977L37.1416 11.3247C38.6902 11.95 40.4936 13.0151 41.8265 13.997C42.3068 11.7888 42.5665 10.4746 42.5763 10.416L43.0468 8.80869C38.6216 4.10399 32.4763 1.43164 25.9145 1.43164L25.9194 1.43653Z" fill="#F58E06"/>
<path d="M14.7016 44.2962C14.7065 43.8126 14.5154 43.0749 14.2752 42.6547L13.0354 40.4954C12.7953 40.0752 12.5257 40.1241 12.4375 40.5979L11.3055 46.5875C11.2124 47.0614 11.3643 47.7747 11.6338 48.1753L14.0841 51.7466C14.3585 52.1472 14.5889 52.0739 14.5938 51.5951L14.6967 44.2962H14.7016Z" fill="#5B9126"/>
<path d="M14.9271 26.9576C14.9271 26.474 14.8634 26.4691 14.785 26.9478L12.9669 37.6714C12.8836 38.1453 13.0649 38.8439 13.3688 39.225L14.3783 40.4855C14.6821 40.8616 14.9271 40.7786 14.9271 40.2949V26.9625V26.9576Z" fill="#B3DE6E"/>
<path d="M18.0978 43.6465C18.4212 43.285 18.6026 42.601 18.5095 42.1271L15.77 28.8387C15.672 28.3648 15.5936 28.3745 15.6034 28.8582L15.8436 45.2929C15.8485 45.7765 16.118 45.8743 16.4414 45.5127L18.0978 43.6465Z" fill="#84B960"/>
<path d="M20.0529 51.8341C20.1705 51.3651 20.1852 50.5932 20.0921 50.1193L19.0434 44.7893C18.9503 44.3154 18.6465 44.2519 18.372 44.6525L16.3677 47.5642C16.0933 47.96 15.8679 48.683 15.8679 49.1667V56.2408C15.8679 56.7245 16.2305 56.9639 16.6764 56.7733L18.2103 56.1187C18.6563 55.9281 19.1267 55.3907 19.2541 54.9266L20.0529 51.839V51.8341Z" fill="#2D5F34"/>
<path d="M27.8499 38.9558C27.8597 38.3939 27.6342 37.5292 27.3549 37.0407L25.9092 34.5247C25.6299 34.0361 25.3163 34.0899 25.2134 34.6419L23.8902 41.6232C23.7824 42.1753 23.9539 43.0107 24.2774 43.4748L27.1344 47.6421C27.4529 48.1062 27.7225 48.0281 27.7274 47.4614L27.845 38.946L27.8499 38.9558Z" fill="#84B960"/>
<path d="M28.1147 18.7355C28.1147 18.1737 28.0412 18.1639 27.9481 18.7209L25.8212 31.2227C25.7281 31.7797 25.9388 32.5907 26.2917 33.0304L27.4727 34.5009C27.8255 34.9406 28.1147 34.838 28.1147 34.2762V18.7306V18.7355Z" fill="#97CF2C"/>
<path d="M31.8143 38.1986C32.1917 37.7785 32.4073 36.9821 32.2946 36.4301L29.0994 20.9285C28.9818 20.3765 28.8936 20.3862 28.9034 20.9481L29.1827 40.1137C29.1925 40.6755 29.5062 40.7928 29.8786 40.3726L31.8143 38.1986Z" fill="#B3DE6E"/>
<path d="M49.0985 22.5801C49.0985 22.5801 52.3868 45.1265 42.5857 54.5359C42.5857 54.5359 54.7047 53.6321 54.8518 42.9524C54.9939 32.2728 49.0985 22.5752 49.0985 22.5752V22.5801Z" fill="#1F5D99"/>
<path d="M44.2079 10.7334C44.2079 10.7334 39.0035 37.4911 30.7068 56.9108C30.7068 56.9108 43.3356 56.984 46.3347 42.9579C49.7406 27.0215 44.2079 10.7383 44.2079 10.7383V10.7334Z" fill="white"/>
<path d="M35.8327 57.9405C39.8854 59.2254 43.8549 60.0461 47.6822 60.4028C49.6032 60.1341 50.9166 59.924 50.9166 59.924C55.332 57.8037 54.8664 54.2031 54.8664 54.2031C47.1873 55.1118 39.6845 56.5579 34.7252 57.6132C35.0976 57.7158 35.4651 57.8233 35.8327 57.9356V57.9405Z" fill="white"/>
<path d="M24.7427 56.2607C25.6836 56.2607 26.5118 56.3046 26.5118 56.3046C27.0754 56.3339 27.536 55.8991 27.536 55.3373V52.5721C27.536 52.0103 27.3106 51.1456 27.0362 50.6522L23.8949 45.0095C23.6205 44.516 23.297 44.5649 23.1794 45.1169L20.739 55.4985C20.5968 56.0457 20.9399 56.4512 21.5034 56.4072C21.5034 56.4072 23.2872 56.2656 24.7329 56.2656L24.7427 56.2607Z" fill="#5B9126"/>
<path d="M13.5846 57.7654C14.0502 57.6335 14.4324 57.1352 14.4324 56.6515V55.9724C14.4324 55.4888 14.2413 54.7462 14.0061 54.326L11.3108 49.4845C11.0755 49.0644 10.8011 49.1035 10.6982 49.5725L8.59095 58.5324C8.46844 59.0014 8.74287 59.2554 9.20352 59.0942L13.5846 57.7605V57.7654Z" fill="#97CF2C"/>
<path d="M0 66.1587C0 66.1587 17.0784 54.3848 34.7302 59.9835C52.3232 65.5627 63.0456 61.2195 63.0456 61.2195C63.0456 61.2195 49.52 69.5688 35.8426 64.4146C24.4684 60.1252 14.9222 60.5063 0 66.1636L0 66.1587Z" fill="white"/>
<path d="M10.6733 65.4795C10.6733 65.4795 19.5384 64.3021 29.8247 68.3717C38.7437 71.9039 52.9651 67.0966 52.9651 67.0966C52.9651 67.0966 42.1153 69.979 29.5552 65.7678C20.9694 62.8902 12.5404 65.0496 10.6733 65.4795Z" fill="#1F5D99"/>
<path d="M33.4021 45.0195C33.5883 44.487 33.6569 43.5978 33.5589 43.0458L32.9071 39.538C32.7993 38.986 32.4514 38.9127 32.1328 39.3768L29.7953 42.7722C29.4767 43.2363 29.2219 44.0766 29.2268 44.6384L29.3787 54.7269C29.3885 55.2887 29.565 55.323 29.7708 54.7953L33.407 45.0195H33.4021Z" fill="#2D5F34"/>
</g>
<defs>
<clipPath id="clip0_1199_77">
<rect width="187" height="69.6667" fill="white"/>
</clipPath>
</defs>
</svg>
