<svg width="561" height="529" viewBox="0 0 561 529" fill="none" xmlns="http://www.w3.org/2000/svg">
<path d="M473.574 188.638L473.575 188.64C477.917 196.937 483.247 206.673 489.108 217.378C499.979 237.235 512.676 260.428 524.282 283.958C542.158 320.2 557.232 356.841 558.956 382.79L560.453 382.69L558.956 382.79C562.663 438.301 527.98 501.683 463.948 520.683L464.375 522.121L463.948 520.683C423.477 532.702 380.17 525.29 339.104 517.653L339.104 517.652C230.546 497.482 106.403 432.191 47.2435 355.24C24.6916 325.896 12.8931 291.197 6.29473 255.977C-0.933616 217.374 -1.65589 176.115 19.0417 140.034L19.0419 140.033C52.4571 81.744 93.9912 31.4724 166.01 9.74095C227.707 -8.87323 291.215 7.92743 344.751 40.7949C398.294 73.6662 441.664 122.495 463.018 167.557C466.311 174.557 469.894 181.581 473.574 188.638Z" stroke="#EF9D22" stroke-width="3"/>
</svg>
